Simulation
nRows=34
nColumns=15
endheader
time  TH_x TH_y TH_z SC_y  SC_z  SC_x  AC_y  AC_z  AC_x  GH_y  GH_z  GH_yy  EL_x  PS_y
2.6910411985018725  0.000000  0.000000  0.000000  -23.237735703616714  5.361519911925454  -5.302088225015992  55.98372378338735  10.180663655073886  7.0610978291970925  -7.674559283653774  2.3880610084910376  37.02410245230988  15.838815542597441  120.000000
2.7312059925093632  0.000000  0.000000  0.000000  -23.31268372755951  5.410863850912457  -5.150173639137363  56.52369577974277  10.617720951053347  7.419021941391424  -47.91216022241323  0.07940656970091192  79.80563713434358  16.596753974234904  120.000000
2.771370786516854  0.000000  0.000000  0.000000  -23.50796541808272  5.479070043755653  -4.976835998232981  56.990961687991415  10.99694274053531  7.710151894294335  176.5341712337686  2.172935535371637  -142.29323734950773  17.272511335195524  120.000000
2.8115355805243447  0.000000  0.000000  0.000000  -23.77930771560121  5.55936763885659  -4.807073604747893  57.377532369075425  11.314456240125445  7.937714413165863  177.11582419060161  4.301690229857367  -140.7254599430517  17.836733107765944  120.000000
2.851700374531835  0.000000  0.000000  0.000000  -24.08958404833555  5.648034346686147  -4.651921249576429  57.68270349515337  11.577597811983093  8.10791619763124  178.4339865559474  6.314779829177387  -140.08787039536705  18.271318369619998  120.000000
2.8918651685393257  0.000000  0.000000  0.000000  -24.413071541192227  5.741726011657436  -4.5111299126839945  57.910932662566694  11.798502680146614  8.232412391998684  -179.9615317939855  8.195704389130492  -139.9243167357977  18.57189828276552  120.000000
2.9320299625468165  0.000000  0.000000  0.000000  -24.73473185664483  5.837258373472549  -4.3803861890419995  58.068766489006315  11.99001760694676  8.32549833588844  -178.22862862598805  9.929823781078026  -140.07328226095768  18.74537930980389  120.000000
2.972194756554307  0.000000  0.000000  0.000000  -25.044412047785457  5.934659769994674  -4.256233476356383  58.16336262440649  12.162909192276386  8.397286009157014  -176.44664292705713  11.507455624118647  -140.451373698946  18.806578118856155  120.000000
3.012359550561798  0.000000  0.000000  0.000000  -25.336227169800797  6.03648009551982  -4.1392023341936985  58.203074177026714  12.324235703642723  8.45210359284993  -174.6735730990551  12.924929501945325  -140.99513718439894  18.775841855607197  120.000000
3.0525243445692882  0.000000  0.000000  0.000000  -25.605846052007532  6.143744386583028  -4.032757298667226  58.195096988460136  12.47596919263553  8.493886075962305  -172.9537008806745  14.184004755414778  -141.65301608259304  18.676990573338806  120.000000
3.092689138576779  0.000000  0.000000  0.000000  -25.848637694682544  6.25447408863046  -3.941340073865618  58.146452775240625  12.616399130763313  8.526363309342496  -171.32279973978072  15.288879159781441  -142.38104471360163  18.534866579591  120.000000
3.1328539325842697  0.000000  0.000000  0.000000  -26.060592227615214  6.3660614103379825  -3.869893906993353  58.064471575055435  12.742354030583627  8.552767905365553  -169.810907820845  16.2443136128383  -143.14022463241332  18.371872365206077  120.000000
3.1730187265917604  0.000000  0.000000  0.000000  -26.238557591565844  6.4759964981338705  -3.82336465378289  57.95607514335391  12.850356339622708  8.575770165305647  -168.44183490701903  17.054548078029814  -143.8975327512513  18.205676590837378  120.000000
3.2131835205992507  0.000000  0.000000  0.000000  -26.38018933981075  6.581832287564121  -3.806116317949347  57.82762016163737  12.937304211050773  8.597797377365694  -167.23350311313104  17.72265332596511  -144.6252887371469  18.04766844674606  120.000000
3.2533483146067415  0.000000  0.000000  0.000000  -26.48379173951289  6.681331694863872  -3.8217515161715223  57.68464679443847  13.000601843355438  8.62112495613247  -166.19828203816166  18.250626977917296  -145.3012452640444  17.903304092334338  120.000000
3.293513108614232  0.000000  0.000000  0.000000  -26.54833528174513  6.772765675824182  -3.8732017382066375  57.53245377375381  13.038086598921266  8.647341525749537  -165.3445603805827  18.639463458322243  -145.90713472279865  17.773474425299693  120.000000
3.333677902621723  0.000000  0.000000  0.000000  -26.57341493324284  6.855041233683971  -3.9625514742046275  57.37587241034945  13.048479139050205  8.677696430009803  -164.6777803305369  18.88905392625241  -146.4280611441376  17.656274082689144  120.000000
3.3738426966292137  0.000000  0.000000  0.000000  -26.559327073736846  6.927212763071637  -4.090424490788936  57.21854220717595  13.03186899667929  8.713737442189107  -164.1998097059718  18.997727439878318  -146.85318429129615  17.548753169817473  120.000000
3.414007490636704  0.000000  0.000000  0.000000  -26.5070566308385  6.98880615157138  -4.255583054973395  57.063286769266156  12.989413786954607  8.756911974843971  -163.91034175753057  18.96244386624797  -147.17462699954535  17.44826674450991  120.000000
3.4541722846441947  0.000000  0.000000  0.000000  -26.41828512267537  7.040000464021452  -4.455648679705407  56.91240708527839  12.923132305358676  8.808048403980735  -163.807314251761  18.779102949354765  -147.3872055317884  17.35333648437162  120.000000
3.4943370786516854  0.000000  0.000000  0.000000  -26.295570367714983  7.081505961777503  -4.687312857423741  56.76727791563886  12.83578416257637  8.867811680655898  -163.88562164521426  18.44308570402854  -147.48956392425475  17.26346655406974  120.000000
3.534501872659176  0.000000  0.000000  0.000000  -26.14236811847674  7.114553030077954  -4.946366764427388  56.62872387278873  12.730878048760852  8.93648078417408  -164.1398666252512  17.949084866950876  -147.48184434887298  17.17854984081376  120.000000
3.574666666666667  0.000000  0.000000  0.000000  -25.962925394632272  7.140849706971552  -5.227192822365591  56.496993246239235  12.612604094849415  9.01398274122849  -164.56494313959382  17.29117287004677  -147.36490724953518  17.09788480905911  120.000000
3.614831460674157  0.000000  0.000000  0.000000  -25.76229399144552  7.162553436256525  -5.522740108534322  56.37116037981703  12.485403389637213  9.100023873301195  -165.15403946746147  16.463449584895713  -147.14229270131895  17.01886372847786  120.000000
3.654996254681648  0.000000  0.000000  0.000000  -25.54604080715254  7.18206322942368  -5.82674480182555  56.24900727608937  12.353861415923253  9.194049196631989  -165.89735463089738  15.461503978855845  -146.82083442086932  16.9363419061311  120.000000
3.6951610486891386  0.000000  0.000000  0.000000  -25.318664593317315  7.200941449210252  -6.136117026540897  56.12827124365314  12.221885723975637  9.294941829445479  -166.78658824373605  14.283730255862222  -146.40578103813237  16.84268365848836  120.000000
3.7353258426966294  0.000000  0.000000  0.000000  -25.08231929331739  7.217916893362816  -6.451997366595428  56.007234109064015  12.09158903803293  9.401904889501054  -167.81870033322272  12.932367607149422  -145.89708351740865  16.728833286780393  120.000000
3.7754906367041197  0.000000  0.000000  0.000000  -24.835473111651275  7.228868471281025  -6.7802634656933325  55.88620195517224  11.962126143214599  9.514374434386513  -169.0053641074286  11.413830883586163  -145.2807194459204  16.58568573159499  120.000000
3.8156554307116104  0.000000  0.000000  0.000000  -24.571861572012587  7.226898432390136  -7.13054683901694  55.766632626803776  11.828832698459003  9.631656554084334  -170.3775131755764  9.738973003852529  -144.52383462850344  16.404727899558512  120.000000
3.855820224719101  0.000000  0.000000  0.000000  -24.28223715006523  7.201782575445352  -7.515457171424397  55.64934126818998  11.6852246498846  9.752788546307256  -171.9946695116  7.922349528310854  -143.56571862850768  16.178097507305147  120.000000
3.895985018726592  0.000000  0.000000  0.000000  -23.956172906591465  7.142567439885993  -7.948876189599889  55.53436823671553  11.525154167605551  9.876848464102935  -174.00030317742275  5.98089047931342  -142.2624663175073  15.89940048711536  120.000000
3.9361498127340826  0.000000  0.000000  0.000000  -23.582730473413193  7.039830837277277  -8.443048657356515  55.42105612424553  11.34420638906057  10.003123849561716  -176.89012633659226  3.9326236123970197  -140.11853678562363  15.565224945239507  120.000000
3.976314606741573  0.000000  0.000000  0.000000  -23.156744460965285  6.886287117575635  -9.00588790640867  55.3082387385426  11.14261006368467  10.13129490684686  176.19085052974856  1.7998084522592408  -133.99136638353156  15.176552376322213  120.000000
4.016479400749064  0.000000  0.000000  0.000000  -22.686905258762476  6.67871901418622  -9.637796239987704  55.194194666074864  10.92795500971482  10.26128541717498  40.51048194652089  0.5742160746990074  0.8444447620911719  14.74026656178778  120.000000
